<svg xmlns="http://www.w3.org/2000/svg" width="13.121" height="13.093" viewBox="0 0 13.121 13.093">
  <path id="Path_580" data-name="Path 580" d="M-5.215,7.711a1.059,1.059,0,0,0-1.491.028l-1.02,1.02-.2-.11a10.184,10.184,0,0,1-2.455-1.776,10.277,10.277,0,0,1-1.78-2.46c-.037-.069-.075-.135-.11-.2l.686-.684.336-.338a1.057,1.057,0,0,0,.028-1.49L-13.25-.324a1.057,1.057,0,0,0-1.49.028l-.57.574.016.016a3.3,3.3,0,0,0-.471.83,3.477,3.477,0,0,0-.21.842c-.268,2.219.746,4.248,3.5,7,3.8,3.8,6.866,3.516,7,3.5a3.418,3.418,0,0,0,.844-.211,3.318,3.318,0,0,0,.828-.469l.012.011.577-.567a1.059,1.059,0,0,0,.028-1.491Z" transform="translate(16.017 0.617)" fill="#fff"/>
</svg>
