<svg xmlns="http://www.w3.org/2000/svg" width="15.875" height="15.875" viewBox="0 0 15.875 15.875">
  <path id="Path_593" data-name="Path 593" d="M8.4.529A7.87,7.87,0,1,0,10.89,15.864l-.19-.627q-.222.075-.451.135a4.61,4.61,0,0,0,.361-.432l-.246-.812a2.864,2.864,0,0,1-1.638,1.444V12.344c.381.008.753.031,1.117.065l-.205-.677q-.448-.034-.911-.044V8.727h2.947c-.006.3-.021.6-.045.888l.642.2q.047-.531.058-1.084H15.6a7.2,7.2,0,0,1-.372,1.99l.626.192A7.873,7.873,0,0,0,8.4.529Zm.328.7a3.312,3.312,0,0,1,1.927,1.983,8.658,8.658,0,0,1,.423,1.075,14.517,14.517,0,0,1-2.35.237Zm-.656,0v3.3a14.514,14.514,0,0,1-2.35-.238,8.659,8.659,0,0,1,.423-1.074A3.313,3.313,0,0,1,8.071,1.224Zm-1.523.2a5.8,5.8,0,0,0-1,1.5,9.449,9.449,0,0,0-.477,1.22,9.508,9.508,0,0,1-1.94-.681A7.2,7.2,0,0,1,6.548,1.424Zm3.7,0a7.2,7.2,0,0,1,3.413,2.039,9.507,9.507,0,0,1-1.94.681,9.449,9.449,0,0,0-.477-1.22,5.8,5.8,0,0,0-1-1.5ZM2.7,3.977a9.846,9.846,0,0,0,2.2.8,14.594,14.594,0,0,0-.427,3.292H1.193A7.18,7.18,0,0,1,2.7,3.977Zm11.4,0a7.18,7.18,0,0,1,1.5,4.094H12.33A14.593,14.593,0,0,0,11.9,4.778a9.846,9.846,0,0,0,2.2-.8Zm-8.563.941a15.158,15.158,0,0,0,2.533.258v2.9H5.123A13.982,13.982,0,0,1,5.537,4.918Zm5.722,0a13.983,13.983,0,0,1,.414,3.153H8.727v-2.9a15.154,15.154,0,0,0,2.533-.258ZM1.193,8.727H4.468a14.545,14.545,0,0,0,.443,3.355,9.916,9.916,0,0,0-2.177.786A7.181,7.181,0,0,1,1.193,8.727Zm3.931,0H8.071v2.962a15.164,15.164,0,0,0-2.517.255,13.934,13.934,0,0,1-.43-3.216Zm2.947,3.618v3.229A3.313,3.313,0,0,1,6.144,13.59a8.586,8.586,0,0,1-.4-1.012A14.529,14.529,0,0,1,8.071,12.344Zm-2.976.37a9.379,9.379,0,0,0,.458,1.158,5.8,5.8,0,0,0,1,1.5A7.2,7.2,0,0,1,3.178,13.38,9.59,9.59,0,0,1,5.095,12.715ZM9.544,9.544l1.683,5.5L12.365,13.9l2.5,2.5L16.4,14.867l-2.5-2.5,1.139-1.139Z" transform="translate(-0.529 -0.529)" fill="#fff"/>
</svg>
