<svg xmlns="http://www.w3.org/2000/svg" width="20.908" height="29.582" viewBox="0 0 20.908 29.582">
  <path id="Path_512" data-name="Path 512" d="M-840.129,126.411c-.281-.293-.54-.554-.789-.824a54.822,54.822,0,0,1-4.25-5.2,38.2,38.2,0,0,1-3.412-5.631,21.919,21.919,0,0,1-1.545-4.106,14.928,14.928,0,0,1-.38-2.028,10.828,10.828,0,0,1-.076-1.8,10.329,10.329,0,0,1,2.047-5.756,10.327,10.327,0,0,1,5.51-3.827,10.776,10.776,0,0,1,2.148-.379,9.662,9.662,0,0,1,1.779.022,10.17,10.17,0,0,1,4.423,1.492,10.357,10.357,0,0,1,4.582,6.026,10.664,10.664,0,0,1,.38,2.173,10.79,10.79,0,0,1-.026,1.8,13.963,13.963,0,0,1-.4,2.245,23.18,23.18,0,0,1-1.974,4.992,40.2,40.2,0,0,1-3.4,5.356,52.554,52.554,0,0,1-4.4,5.2C-839.972,126.239-840.036,126.311-840.129,126.411Zm-6.421-19.258a6.392,6.392,0,0,0,6.365,6.427,6.42,6.42,0,0,0,6.47-6.353,6.423,6.423,0,0,0-6.384-6.488A6.4,6.4,0,0,0-846.549,107.153Z" transform="translate(850.592 -96.829)" fill="#010101"/>
</svg>
