<svg xmlns="http://www.w3.org/2000/svg" xmlns:xlink="http://www.w3.org/1999/xlink" width="50" height="50" viewBox="0 0 50 50">
  <defs>
    <clipPath id="clip-path">
      <rect id="Rectangle_106" data-name="Rectangle 106" width="50" height="50" fill="#fff" stroke="#707070" stroke-width="1"/>
    </clipPath>
  </defs>
  <g id="Mask_Group_14" data-name="Mask Group 14" clip-path="url(#clip-path)">
    <g id="Group_669" data-name="Group 669" transform="translate(3.919 1.057)">
      <path id="Path_388" data-name="Path 388" d="M2989.807-1125.282a4.848,4.848,0,0,0-5.832-3.394,3.543,3.543,0,0,1-1.263.29c0-.6-.017-1.164.006-1.721.017-.411-.077-.629-.558-.623-2.554.032-5.106.037-7.659.052.024,2.765.089,5.529-.848,8.2a18.962,18.962,0,0,1-8.066,10.156,1.678,1.678,0,0,1-.953.3c-1.711-.017-3.426-.015-5.139-.02-3.645,0-7.289.022-10.934,0-.686,0-.84.167-.7.853a4.84,4.84,0,0,0,4.722,4.015q13.878.031,27.756,0a4.834,4.834,0,0,0,4.685-3.946c.179-.814-.079-.928-.8-.92-3.3.03-6.6.015-9.9.007a1.2,1.2,0,0,1-.823-.122,18.775,18.775,0,0,0,5.654-5.168,1.425,1.425,0,0,1,.963-.5c2.116-.505,4.247-.962,6.346-1.532A4.794,4.794,0,0,0,2989.807-1125.282Zm-4.127,2.964c-1.375.442-2.786.775-4.309,1.188.331-1.175.619-2.153.877-3.141a.78.78,0,0,1,.653-.67c.606-.125,1.2-.337,1.8-.474a1.627,1.627,0,0,1,1.936,1.046A1.562,1.562,0,0,1,2985.679-1122.319Z" transform="translate(-2947.816 1155.045)" fill="#d55246"/>
      <path id="Path_389" data-name="Path 389" d="M3002.687-1246.158a30.908,30.908,0,0,1-4.29.06,2.032,2.032,0,0,0-2.221,1.77,2.014,2.014,0,0,0,2.062,2.335,3.2,3.2,0,0,1,2.979,2.283c.268.67.155.933-.642.922-2.771-.039-5.544-.017-8.314-.017h-4.672q-6.4,0-12.8,0c-1.117,0-1.053,0-.922-1.074a9.778,9.778,0,0,1,2.249-5.214,8.864,8.864,0,0,1,5.6-3.218c3.426-.516,6.9-.215,10.343-.18a3.417,3.417,0,0,0,3.579-2.913,3.354,3.354,0,0,0-3.265-3.66c-2.209-.243-3.117-1.244-3.119-3.48,0-2.14,0-2.14,2.151-2.14,1.931,0,3.862.013,5.792-.007.542-.006.823.067.872.739a3.387,3.387,0,0,0,3.673,3.381,5.268,5.268,0,0,1,5.272,4.565A5.286,5.286,0,0,1,3002.687-1246.158Z" transform="translate(-2968.936 1260.691)" fill="#efe3d5"/>
      <path id="Path_390" data-name="Path 390" d="M2984.762-1130.6q-9.761-.017-19.522-.032c-1.371,0-2.741,0-4.11,0-.372,0-.644.009-.666.522a19.712,19.712,0,0,0,4.192,13.693,23.917,23.917,0,0,0,5.1,4.455c1.714.006,3.427,0,5.139.021a1.677,1.677,0,0,0,.952-.3,18.961,18.961,0,0,0,8.066-10.155C2984.852-1125.076,2984.786-1127.84,2984.762-1130.6Zm-21.866,2.992c-.1-.692.421-.576.846-.616.639-.058.939.174.812.816.092.685-.245.879-.859.881C2962.892-1126.528,2962.963-1127.129,2962.9-1127.613Zm4.488,9.534c-.32.264-.5-.078-.688-.26a12.043,12.043,0,0,1-3.153-5.718c-.127-.485-.109-.724.46-.853.513-.116.92-.226,1.094.417a11.1,11.1,0,0,0,1.351,3.252,11.066,11.066,0,0,0,1.287,1.7.946.946,0,0,1,.366.563C2968.045-1118.56,2967.686-1118.326,2967.384-1118.079Z" transform="translate(-2958.078 1154.973)" fill="#e7594a"/>
      <path id="Path_391" data-name="Path 391" d="M2981.31-1094.461c-.058.415-.416.649-.718.9-.319.262-.5-.08-.687-.26a12.037,12.037,0,0,1-3.153-5.717c-.128-.486-.11-.725.46-.854.513-.116.92-.226,1.094.418a11.142,11.142,0,0,0,1.35,3.251,11.112,11.112,0,0,0,1.288,1.7A.937.937,0,0,1,2981.31-1094.461Z" transform="translate(-2971.286 1130.459)" fill="#f6796c"/>
      <path id="Path_392" data-name="Path 392" d="M2975.178-1116.968c.092.684-.247.878-.859.881-.8,0-.732-.6-.8-1.083-.1-.692.421-.576.845-.614C2975.006-1117.841,2975.3-1117.61,2975.178-1116.968Z" transform="translate(-2968.701 1144.528)" fill="#f6796c"/>
    </g>
  </g>
</svg>
