<svg xmlns="http://www.w3.org/2000/svg" xmlns:xlink="http://www.w3.org/1999/xlink" width="50" height="58" viewBox="0 0 50 58">
  <defs>
    <clipPath id="clip-path">
      <rect id="Rectangle_102" data-name="Rectangle 102" width="50" height="58" fill="#fff" stroke="#707070" stroke-width="1"/>
    </clipPath>
  </defs>
  <g id="Mask_Group_10" data-name="Mask Group 10" clip-path="url(#clip-path)">
    <g id="Group_664" data-name="Group 664" transform="translate(1.039 1.213)">
      <path id="Path_300" data-name="Path 300" d="M892.736-593.595c.045-6.229.024-12.458.022-18.686,0-.373-.024-.745-.037-1.118l-5.174.019c-.017,2.182-.045,4.364-.049,6.545q-.011,5.894,0,11.789v1.161l0,0a22.156,22.156,0,0,1-4.622-2.292,21.434,21.434,0,0,0,4.584,2.362.213.213,0,0,0,.037.013,24.7,24.7,0,0,0,5.738,1.24C892.887-592.7,892.73-593,892.736-593.595Zm1.68,1.114q.587.028,1.182.028c.3,0,.6-.006.9-.017C895.805-592.48,895.11-592.479,894.416-592.48Zm8.944-2.015c.022-4.925.015-9.851.009-14.776,0-1.371-.024-2.742-.039-4.113q-2.587-.006-5.178-.009-.02,5.745-.037,11.489c-.008,2.833-.021,5.669.011,8.5.006.44-.075.717-.322.852a24.7,24.7,0,0,0,6-1.288C903.461-593.774,903.356-593.967,903.36-594.5ZM919.6-614.62c.024-.331.041-.665.052-1C919.64-615.285,919.621-614.951,919.6-614.62Zm-5.691,13.712v-6.922l-.148-.032h0c-.1-.024-.193-.049-.285-.077s-.174-.056-.257-.09l-.092-.039a.984.984,0,0,1-.09-.043,1.724,1.724,0,0,1-.275-.17c-.024-.017-.047-.036-.069-.054s-.049-.041-.071-.064a1.416,1.416,0,0,1-.18-.212,1.611,1.611,0,0,1-.245-.565c-.26-1.112.352-1.878,1.712-2.161l-.034-2.064-5.2.017c-.013,5.36-.049,10.721-.017,16.081a1.606,1.606,0,0,1-.968,1.684c-1.094.553-2.189,1.1-3.318,1.573a24.864,24.864,0,0,0,9.534-6.444.087.087,0,0,0,.011-.013c.069-.073.135-.146.2-.219.146-.176.273-.358.324-.417a23.653,23.653,0,0,0,5.158-13.478,23.6,23.6,0,0,1-5.3,13.338C914.222-601.192,914.128-601.119,913.907-600.908Z" transform="translate(-871.744 640.359)" fill="#f7f9fa"/>
      <path id="Path_301" data-name="Path 301" d="M875.18-637.538a1.936,1.936,0,0,1-2.161,1.925c-.56.011-1.118.017-1.676.024-1.14-.008-2.279-.019-3.418-.021-1.919,0-1.919,0-1.843,1.9-.013,5.36-.049,10.721-.017,16.081a1.606,1.606,0,0,1-.968,1.684c-1.094.552-2.189,1.1-3.319,1.573-.075.034-.152.065-.228.1a1.954,1.954,0,0,1-.339.11c-.343.064-.448-.129-.444-.657.022-4.925.015-9.851.009-14.776,0-1.371-.024-2.742-.039-4.113a9.8,9.8,0,0,1,.032-1.024c.094-.7-.182-.938-.884-.89-.837.058-1.68.015-2.521.015-1.85,0-1.85,0-1.805,1.89q-.02,5.745-.037,11.489c-.008,2.834-.021,5.669.011,8.5.006.44-.075.717-.322.852a1.1,1.1,0,0,1-.566.1c-.247-.008-.492-.013-.74-.017-.693-.011-1.388-.009-2.083-.011-.212,0-.421,0-.633,0a1.609,1.609,0,0,1-.552-.082c-.343-.131-.5-.433-.494-1.03.045-6.229.024-12.457.023-18.686,0-.373-.024-.745-.037-1.118a7.365,7.365,0,0,1,.021-.933c.118-.8-.242-1.023-1-.966-.8.06-1.616.015-2.423.015-1.875,0-1.875,0-1.775,1.9-.017,2.182-.045,4.363-.049,6.545q-.011,5.893,0,11.789l0,1.159v.084a.321.321,0,0,0-.038-.015,21.367,21.367,0,0,1-4.583-2.362c-.134-.1-.267-.2-.4-.3-.1-.079-.193-.161-.289-.243q.02-2.332.039-4.661a2.615,2.615,0,0,0,2.438-.97,2.651,2.651,0,0,0-.994-4.3,2.548,2.548,0,0,1-1.472-1.157c.007-2.264,0-4.528.032-6.792.006-.536-.182-.7-.7-.685-1.521.036-3.039.028-4.56.037-.68-.011-1.361-.006-2.041-.039a1.9,1.9,0,0,1-1.811-1.684c-.223-1.32.176-2.524.987-2.871a1.588,1.588,0,0,1,.725-.1,1.391,1.391,0,0,0,1.015-.354c.176.249.442.193.684.193q3.129,0,6.259-.009l7.309,0h1.311q1.879.006,3.762.009,2.188.006,4.377.006,8.045-.008,16.091-.032a1.78,1.78,0,0,0,.343.137C874.871-640.057,875.315-639.372,875.18-637.538Z" transform="translate(-829.151 660.685)" fill="#dc5ea0"/>
      <path id="Path_302" data-name="Path 302" d="M871.365-722.982c-.011.335-.028.669-.052,1v0a23.652,23.652,0,0,1-5.157,13.478c-.051.06-.178.242-.324.417a2.516,2.516,0,0,1-.2.219.081.081,0,0,1-.011.013l0-1.316c0-2.079,0-4.051,0-6.021a0,0,0,0,0,0,0c.11-.056.217-.114.326-.17a1.525,1.525,0,0,0,1.257-1.674,1.5,1.5,0,0,0-1.423-1.53l-.161-.133c-.011-.687-.023-1.376-.034-2.064.021-.62.043-1.24.064-1.862.558-.008,1.116-.013,1.676-.024a1.936,1.936,0,0,0,2.161-1.925c.135-1.833-.309-2.519-1.794-2.787a1.767,1.767,0,0,1-.343-.137,3.335,3.335,0,0,0-2.8-3.174c-.474-.1-.472-.346-.5-.714a3.424,3.424,0,0,0-3.663-3.412c-.433,0-.644-.081-.8-.537a3.363,3.363,0,0,0-4.506-2.281c-.406.124-.564.051-.8-.3a3.379,3.379,0,0,0-4.948-1.043c-.29.176-.524.322-.816.049a3.379,3.379,0,0,0-4.976.064c-.356.375-.584.554-1.154.3a3.369,3.369,0,0,0-4.618,1.714c-.2.4-.35.534-.828.446a3.4,3.4,0,0,0-4.073,2.779c-.1.552-.275.678-.788.758-1.792.279-3.1,1.42-3.028,3.12.052,1.309-.614,1.654-1.493,2.06a1.39,1.39,0,0,1-1.015.354,1.589,1.589,0,0,0-.725.1c-.811.346-1.21,1.551-.987,2.871a1.9,1.9,0,0,0,1.811,1.684c.68.034,1.361.028,2.041.039q0,6.8.006,13.594c-.36-.12-.5-.455-.7-.727a23.917,23.917,0,0,1,.36-28.507c.075-.1.148-.2.223-.3a3.194,3.194,0,0,0,3.53.964c2.418-.775,2.965-3.264,1.2-5.467a19.771,19.771,0,0,1,5.5-3.03,6.961,6.961,0,0,1-.118.721,2.074,2.074,0,0,0,2.553,2.509,1.916,1.916,0,0,0,1.592-1.9,2.3,2.3,0,0,0-1.434-2.182,23.663,23.663,0,0,1,18.963,3.017,10.9,10.9,0,0,0-.663,1,3.184,3.184,0,0,0,.5,3.618,3.036,3.036,0,0,0,3.528.773,2.415,2.415,0,0,0,1.1-.631,2.5,2.5,0,0,0,1.476.6A23.928,23.928,0,0,1,871.365-722.982Z" transform="translate(-823.457 747.721)" fill="#544998"/>
      <path id="Path_303" data-name="Path 303" d="M856.617-599.965q-.02,2.332-.039,4.661a17.75,17.75,0,0,1-5.212-4.937q0-6.8-.006-13.594c1.521-.009,3.039,0,4.56-.037.519-.011.706.15.7.685-.03,2.264-.024,4.528-.032,6.792a1.869,1.869,0,0,0-1.865-.18,1.772,1.772,0,0,0-.77,2.884,1.393,1.393,0,0,1,.266.762A2.789,2.789,0,0,0,856.617-599.965Z" transform="translate(-846.134 638.939)" fill="#dcd9eb"/>
      <path id="Path_304" data-name="Path 304" d="M1033.536-728.632a2.052,2.052,0,0,1-1.036.67c-.534-.7-.8-1.049-.8-1.416a.545.545,0,0,1,.007-.092.043.043,0,0,1,0-.022.564.564,0,0,1,.018-.094v0c.008-.032.019-.064.03-.1a1.991,1.991,0,0,1,.116-.256c.022-.039.045-.082.071-.126.058-.1.125-.206.2-.324.047-.071.1-.148.154-.228s.125-.184.195-.285c-.054,0-.109,0-.161,0s-.126,0-.185.006-.107.008-.157.015-.092.011-.135.021a1.316,1.316,0,0,0-.129.028.05.05,0,0,0-.017,0c-.037.009-.073.021-.107.032s-.069.024-.1.037a.851.851,0,0,0-.1.049.666.666,0,0,0-.073.041.077.077,0,0,0-.023.015.614.614,0,0,0-.067.047.587.587,0,0,0-.077.064.407.407,0,0,0-.047.049.584.584,0,0,0-.1.114.493.493,0,0,0-.047.073.074.074,0,0,0-.013.023c-.013.021-.022.041-.034.062a.579.579,0,0,0-.024.058.585.585,0,0,0-.024.06,1.046,1.046,0,0,0-.058.221.631.631,0,0,0-.015.086c0,.019-.005.039-.008.058a.567.567,0,0,0-.005.079,3.692,3.692,0,0,0,.174,1.234,2.414,2.414,0,0,1-1.1.631,3.244,3.244,0,0,1-.854-5.461l.053-.056c.148-.159.279-.341.418-.511.354.043.551-.249.817-.391a2.139,2.139,0,0,1,2.583.283,2.154,2.154,0,0,1,.464,2.631c-.191.358-.279.562.032.949A1.346,1.346,0,0,1,1033.536-728.632Z" transform="translate(-989.594 736.999)" fill="#fecf64"/>
      <path id="Path_305" data-name="Path 305" d="M859.051-729.211a3.134,3.134,0,0,1-2.122-4.451c.152-.36.509-.648.573-1.023a.644.644,0,0,0,0-.217,2.816,2.816,0,0,1,1.122-2.508,1.9,1.9,0,0,1,1.161.873,4.816,4.816,0,0,1,.464,1.859C862.015-732.475,861.468-729.986,859.051-729.211Z" transform="translate(-850.404 739.341)" fill="#fecf64"/>
      <path id="Path_306" data-name="Path 306" d="M1019.5-725.528a3.036,3.036,0,0,1-3.528-.773,3.184,3.184,0,0,1-.5-3.618,10.883,10.883,0,0,1,.663-1,5.554,5.554,0,0,1,1.729-.772,2.189,2.189,0,0,1,1.251.135c-.139.17-.27.352-.418.511l-.052.056A3.243,3.243,0,0,0,1019.5-725.528Z" transform="translate(-979.226 734.723)" fill="#fdc050"/>
      <path id="Path_307" data-name="Path 307" d="M851.483-729.539a3.194,3.194,0,0,1-3.53-.965,4.343,4.343,0,0,1-.631-1.734,3.206,3.206,0,0,1,.76-2.423.749.749,0,0,0,.112-.6,2.194,2.194,0,0,1,2.865-2.474,2.816,2.816,0,0,0-1.122,2.508.649.649,0,0,1,0,.217c-.064.375-.421.663-.573,1.022A3.134,3.134,0,0,0,851.483-729.539Z" transform="translate(-842.836 739.669)" fill="#fdc050"/>
      <path id="Path_308" data-name="Path 308" d="M907.694-612.015c-.1-1.9-.1-1.9,1.775-1.9.808,0,1.62.047,2.424-.013.755-.056,1.113.162,1,.966a7.181,7.181,0,0,0-.02.931Z" transform="translate(-891.891 638.994)" fill="#dcd9eb"/>
      <path id="Path_309" data-name="Path 309" d="M964.419-612.021c-.045-1.889-.045-1.889,1.806-1.889.84,0,1.684.044,2.52-.014.7-.049.978.185.883.888a9.391,9.391,0,0,0-.031,1.025Z" transform="translate(-938.012 638.986)" fill="#dcd9eb"/>
      <path id="Path_310" data-name="Path 310" d="M1025.819-613.8q-.032.931-.063,1.861l-5.2.016c-.076-1.9-.076-1.9,1.842-1.9C1023.54-613.818,1024.68-613.807,1025.819-613.8Z" transform="translate(-983.628 638.896)" fill="#dcd9eb"/>
      <path id="Path_311" data-name="Path 311" d="M915.045-741.338a1.916,1.916,0,0,1-1.592,1.9,2.313,2.313,0,0,1-1.1-2.609c.1-.618.807-.852.9-1.464.116,0,.232,0,.348,0A2.3,2.3,0,0,1,915.045-741.338Z" transform="translate(-895.666 744.307)" fill="#fecf64"/>
      <path id="Path_312" data-name="Path 312" d="M907.07-739.6a2.074,2.074,0,0,1-2.553-2.509,6.949,6.949,0,0,0,.118-.721c.7-.416,1.313-1.049,2.244-.843-.1.612-.8.847-.9,1.465A2.313,2.313,0,0,0,907.07-739.6Z" transform="translate(-889.282 744.465)" fill="#fdc050"/>
      <path id="Path_313" data-name="Path 313" d="M1040.907-592.75l.162.133c-1.089,1.542-1.051,2.274.167,3.2l-.328.172c-.792-.168-1.5-.448-1.713-1.347C1038.936-591.7,1039.548-592.467,1040.907-592.75Z" transform="translate(-998.745 621.772)" fill="#fdc050"/>
      <path id="Path_314" data-name="Path 314" d="M1045.13-712.252a.291.291,0,0,1-.06.129,2.5,2.5,0,0,1-1.476-.6,3.7,3.7,0,0,1-.174-1.234.549.549,0,0,1,.006-.079c0-.019,0-.039.007-.058a.627.627,0,0,1,.015-.086,1.01,1.01,0,0,1,.058-.221.512.512,0,0,1,.024-.06.316.316,0,0,1,.024-.058c.011-.021.021-.041.034-.062a.072.072,0,0,1,.013-.023.474.474,0,0,1,.047-.073.571.571,0,0,1,.1-.114.233.233,0,0,1,.047-.049.6.6,0,0,1,.077-.064.591.591,0,0,1,.068-.047.079.079,0,0,1,.022-.015.69.69,0,0,1,.073-.041.85.85,0,0,1,.1-.049c.034-.013.068-.026.1-.037s.069-.023.107-.032a.052.052,0,0,1,.017,0,1.309,1.309,0,0,1,.129-.028c.043-.009.088-.015.135-.021s.1-.011.157-.015.122-.006.185-.006.107,0,.161,0c-.069.1-.135.195-.195.285s-.107.157-.153.228c-.079.118-.146.225-.2.324-.026.043-.05.086-.071.125a1.981,1.981,0,0,0-.116.257c-.011.034-.022.065-.03.1v0a.579.579,0,0,0-.019.094.045.045,0,0,0,0,.022.52.52,0,0,0-.007.092C1044.33-713.3,1044.6-712.951,1045.13-712.252Z" transform="translate(-1002.223 721.29)" fill="#fdc050"/>
      <path id="Path_315" data-name="Path 315" d="M912.472-695.458c-.474-.1-.472-.346-.5-.713a3.424,3.424,0,0,0-3.663-3.412c-.433,0-.644-.081-.8-.537A3.363,3.363,0,0,0,903-702.4c-.406.124-.564.051-.8-.3a3.379,3.379,0,0,0-4.948-1.043c-.29.176-.524.322-.817.049a3.619,3.619,0,0,0-3.86,2.152c-.171.365-.4.451-.818.373a3.351,3.351,0,0,0-3.963,2.532,1.28,1.28,0,0,1-1.191,1.107,2.933,2.933,0,0,0-2.667,2.695,2.643,2.643,0,0,1-1.517,2.566l7.309,0c-.457-1.779.536-2.981,2.446-2.717a2.586,2.586,0,0,0-1.135,2.715l3.762.011q2.188.006,4.377.006,8.045-.008,16.091-.032A3.336,3.336,0,0,0,912.472-695.458ZM901.7-694.2a1.793,1.793,0,0,1-2.077-.869,2.658,2.658,0,0,0-1.232-1.032,1.919,1.919,0,0,1-1.114-2.463,2.025,2.025,0,0,1,2.422-1.483c.088.3-.2.35-.346.472a2.193,2.193,0,0,0-.742,1.365c-.088.519-.049,1.167.432,1.408.393.2.419-.466.657-.708a2.076,2.076,0,0,1,2.1-.71A2.479,2.479,0,0,0,901.7-694.2Z" transform="translate(-871.378 712.507)" fill="#fecf64"/>
      <path id="Path_316" data-name="Path 316" d="M866.309-705.255a3.621,3.621,0,0,0-3.861,2.151c-.169.366-.395.452-.818.372a3.353,3.353,0,0,0-3.962,2.532,1.28,1.28,0,0,1-1.191,1.107,2.933,2.933,0,0,0-2.667,2.695,2.641,2.641,0,0,1-1.517,2.567q-3.13.006-6.259.009c-.242,0-.507.055-.683-.193.879-.406,1.544-.752,1.492-2.06-.068-1.7,1.236-2.84,3.029-3.12.512-.08.694-.206.789-.759a3.4,3.4,0,0,1,4.072-2.778c.479.088.626-.044.829-.446a3.369,3.369,0,0,1,4.618-1.714c.569.254.8.075,1.153-.3A3.38,3.38,0,0,1,866.309-705.255Z" transform="translate(-841.25 714.071)" fill="#fdc050"/>
      <path id="Path_317" data-name="Path 317" d="M869.26-575.7a1.867,1.867,0,0,1,1.865.179,2.554,2.554,0,0,0,1.472,1.158,2.65,2.65,0,0,1,.994,4.3c-.34,0-.681,0-1.021,0-.988-.009-2.2-.691-2.311-1.639C870.092-573.1,869.122-574.262,869.26-575.7Z" transform="translate(-860.671 608.07)" fill="#fecf64"/>
      <path id="Path_318" data-name="Path 318" d="M864-574.9c-.138,1.443.832,2.607,1,4,.113.948,1.323,1.63,2.311,1.639.34,0,.681,0,1.021,0a2.609,2.609,0,0,1-2.437.97,2.788,2.788,0,0,1-2.4-2.963,1.379,1.379,0,0,0-.267-.761A1.773,1.773,0,0,1,864-574.9Z" transform="translate(-855.409 607.265)" fill="#fdc050"/>
      <path id="Path_319" data-name="Path 319" d="M920.968-651.594c-.457-1.778.537-2.981,2.446-2.717a2.589,2.589,0,0,0-1.135,2.717Z" transform="translate(-902.617 671.834)" fill="#fdc050"/>
      <path id="Path_320" data-name="Path 320" d="M1046.22-588.838c-1.218-.93-1.256-1.662-.167-3.2a1.5,1.5,0,0,1,1.423,1.531A1.524,1.524,0,0,1,1046.22-588.838Z" transform="translate(-1003.729 621.197)" fill="#fecf64"/>
      <path id="Path_321" data-name="Path 321" d="M965.8-679.519a2.478,2.478,0,0,0-.1,4.019,1.792,1.792,0,0,1-2.076-.87,2.662,2.662,0,0,0-1.233-1.031,1.919,1.919,0,0,1-1.114-2.463,2.024,2.024,0,0,1,2.423-1.482c.087.3-.2.349-.347.47a2.211,2.211,0,0,0-.742,1.365c-.087.52-.049,1.168.433,1.409.393.2.42-.467.658-.708A2.073,2.073,0,0,1,965.8-679.519Z" transform="translate(-935.378 693.805)" fill="#fdc050"/>
    </g>
  </g>
</svg>
