<svg xmlns="http://www.w3.org/2000/svg" xmlns:xlink="http://www.w3.org/1999/xlink" width="50" height="50" viewBox="0 0 50 50">
  <defs>
    <clipPath id="clip-path">
      <rect id="Rectangle_108" data-name="Rectangle 108" width="50" height="50" fill="#fff" stroke="#707070" stroke-width="1"/>
    </clipPath>
  </defs>
  <g id="Mask_Group_15" data-name="Mask Group 15" clip-path="url(#clip-path)">
    <g id="Group_667" data-name="Group 667" transform="translate(0.991 3.789)">
      <path id="Path_342" data-name="Path 342" d="M2400.186-677.718a9.466,9.466,0,0,0-2.941-3.818,10.105,10.105,0,0,0-6.353-1.382c-.527.023-1.057-.019-1.584-.032q-3.292.031-6.58.058a8.951,8.951,0,0,0-4.107,1.805,7.885,7.885,0,0,0-2.831,6.485c0,.105.111.211.169.316.711-.372,1.125-.039,1.1.641-.025.615.481,1.463-.529,1.811a21.883,21.883,0,0,0,2.244,3.934,3.056,3.056,0,0,1,.047-.747.676.676,0,0,1,1.181-.278,1.712,1.712,0,0,1-.461,2.362,18.592,18.592,0,0,0,2.232,4.107q.005-.516.013-1.032a.576.576,0,0,1,.632-.645c.412-.009.666.166.679.594s0,.876.01,1.315c.009.519-.254.743-.754.722a25.948,25.948,0,0,0,2.436,4.5,6.946,6.946,0,0,1,.043-1.108.68.68,0,0,1,1.192-.367c.472.489.281,1.113.218,1.676a.757.757,0,0,1-.886.741,9.028,9.028,0,0,0,2.821,4.139l.379-.229c-.615-2.044.194-3.91.73-5.807.731-2.6,1.48-5.187,2.206-7.784a4.179,4.179,0,0,0,.062-.831,1.928,1.928,0,0,1-.412-2.148.752.752,0,0,1,1.164-.3,5.975,5.975,0,0,0,.72-2.193c.235-1.057,1.188-1.781,1.23-2.9,0-.055.135-.117.218-.152,1.888-.871,3.741-1.885,5.945-1.537C2400.343-676.439,2400.266-677.077,2400.186-677.718Zm-19.907-.318c-.022.557.072,1.168-.579,1.452a.633.633,0,0,1-.743-.261c-.256-.3-.145-.656-.184-.965.036-.363-.072-.718.158-1.025a.676.676,0,0,1,.82-.292C2380.244-678.935,2380.3-678.5,2380.279-678.036Zm2.97,5.619a.663.663,0,0,1-.756.553c-.687-.132-.692-.707-.7-1.243-.006-.566-.029-1.181.692-1.341a.654.654,0,0,1,.758.547,3.446,3.446,0,0,1,.054.743A3.452,3.452,0,0,1,2383.249-672.417Zm1.73-5.456h.007c0-.248-.015-.5,0-.745a.554.554,0,0,1,.619-.551c.4-.009.666.154.683.579s.008.869.009,1.3-.139.726-.628.739c-.534.013-.707-.29-.694-.767C2384.985-677.5,2384.979-677.686,2384.979-677.872Zm.679,11.3c-.543.008-.7-.312-.679-.784,0-.055,0-.109,0-.166,0-.1,0-.2,0-.3s0-.186,0-.28,0-.186,0-.28c.013-.425.216-.762.644-.775s.648.322.669.745c.017.34,0,.683.01,1.025C2386.314-666.938,2386.213-666.584,2385.658-666.577Zm3.63,4.391a.711.711,0,0,1-.767.66c-.451-.017-.536-.346-.538-.72,0-.188,0-.374,0-.639.125-.395-.316-1.224.6-1.211.85.011.711.773.72,1.352A2.743,2.743,0,0,1,2389.288-662.186Zm-.489-9.678a.686.686,0,0,1-.785-.64,3.5,3.5,0,0,1-.007-.654,3.5,3.5,0,0,1,.007-.654c.083-.414.362-.724.785-.634.724.156.679.786.69,1.352C2389.5-672.544,2389.516-671.969,2388.8-671.863Zm3.682-5.354c-.079.414-.337.718-.767.651-.69-.111-.7-.694-.705-1.232-.007-.564-.038-1.19.682-1.346.423-.092.706.211.784.624a3.9,3.9,0,0,1,.01.745A2.921,2.921,0,0,1,2392.481-677.218Z" transform="translate(-2370.697 692.456)" fill="#fa2b3a"/>
      <path id="Path_343" data-name="Path 343" d="M2485.423-616.289a8.98,8.98,0,0,0-3.131-4.741c-.271-.25-.5-.545-.75-.82-1.444-1.33-2.842-2.7-4.154-4.164-.105-.058-.209-.118-.314-.179a4.016,4.016,0,0,1-1.56-.192,6.489,6.489,0,0,0-5.373,1.728c-.258.214-.435.543-.824.566.079.513-.384.749-.575,1.121a16.724,16.724,0,0,1-.957,3.193c.481.82-.088,1.333-.549,1.879a3.18,3.18,0,0,1-.092.709c-.051.214-.117.425-.182.636-.01.032-.019.064-.03.094a4,4,0,0,0-.267,1.568v0a.875.875,0,0,1,.109.764.233.233,0,0,1-.019.045.568.568,0,0,1-.043.088,1.283,1.283,0,0,1-.15.211c-.034.039-.07.079-.105.117-.124.132-.26.256-.374.389-.023.028-.043.055-.064.083a1.1,1.1,0,0,0-.109.171q-.378,1.419-.756,2.84a1.049,1.049,0,0,1-.2,1.612,6.007,6.007,0,0,0-.543.628,16.257,16.257,0,0,1-.617,2.663,6.176,6.176,0,0,0-.134,1.083,3.856,3.856,0,0,0,1.553-.293q7.349-2.085,14.694-4.175C2483.939-609.8,2485.615-612.11,2485.423-616.289Zm-12.232-9.306c.431-.015.619.222.626.632.011.48-.835,1.42-1.3,1.414a.679.679,0,0,1-.741-.673C2471.753-624.547,2472.841-625.581,2473.191-625.594Zm-4.185,16.159c-.474,0-.669-.254-.647-.707.025-.483.916-1.371,1.382-1.335a.684.684,0,0,1,.671.743C2470.417-610.278,2469.479-609.428,2469.007-609.435Zm1.089-4.544a.742.742,0,0,1-.594-.8c.021-.361,1.085-1.442,1.4-1.4a.73.73,0,0,1,.652.869A1.931,1.931,0,0,1,2470.1-613.979Zm1.473-4.933c-.386-.023-.726-.194-.752-.662a2.642,2.642,0,0,1,1.418-1.5c.322.06.619.177.64.615C2472.892-620.076,2471.94-618.89,2471.568-618.912Zm2.251,8.516a.719.719,0,0,1-.743-.694c-.045-.4.99-1.491,1.417-1.476a.886.886,0,0,1,.76.653C2475.267-611.453,2474.237-610.381,2473.82-610.4Zm1.215-4.9a.7.7,0,0,1-.643-.709c-.028-.372,1.016-1.5,1.392-1.48a.769.769,0,0,1,.778.666C2476.642-616.368,2475.611-615.324,2475.034-615.3Zm.952-4.672a.68.68,0,0,1-.634-.668c-.028-.378,1.126-1.429,1.5-1.38a.671.671,0,0,1,.671.743A1.9,1.9,0,0,1,2475.986-619.969Zm2.774,8.258a.7.7,0,0,1-.778-.638c-.068-.459.97-1.533,1.482-1.542a.793.793,0,0,1,.7.716C2480.219-612.819,2479.164-611.724,2478.76-611.711Zm.946-4.566a.786.786,0,0,1-.747-.709c-.062-.4,1.012-1.474,1.427-1.459a.737.737,0,0,1,.739.641C2481.15-617.346,2480.129-616.251,2479.706-616.277Z" transform="translate(-2442.045 646.593)" fill="#fa2b3a"/>
      <path id="Path_344" data-name="Path 344" d="M2366.209-651.958a4.568,4.568,0,0,1-6.661-1.674c-2.063-3.641-4.085-7.308-6.122-10.966-1.079-1.937-2.065-3.934-3.253-5.8a8.091,8.091,0,0,1,1.905-11.192,8.488,8.488,0,0,1,4.015-1.354c1.3-.062,2.609-.038,3.914-.053l.752.068a8.955,8.955,0,0,0-4.107,1.805,7.883,7.883,0,0,0-2.83,6.484c0,.105.111.211.169.316a3.636,3.636,0,0,0-.187,1.743c-.03.53.273.72.758.709a21.885,21.885,0,0,0,2.244,3.934c.062.557-.25,1.33.767,1.337a18.6,18.6,0,0,0,2.233,4.107.934.934,0,0,0,.579.953,25.953,25.953,0,0,0,2.436,4.5c-.09.481.288.683.568.942A9.03,9.03,0,0,0,2366.209-651.958Z" transform="translate(-2348.728 692.497)" fill="#e3212e"/>
      <path id="Path_345" data-name="Path 345" d="M2459.913-641.489a4.013,4.013,0,0,1-1.559-.192,6.489,6.489,0,0,0-5.373,1.728c-.258.214-.435.544-.824.566a.652.652,0,0,0-1.113-.434c-.517.367-1.3.816-.876,1.61.365.688.946.239,1.414-.055a16.721,16.721,0,0,1-.957,3.193c-.619-.118-.967.292-1.33.677-.293.31-.743.605-.453,1.091.314.527.8.3,1.234.111a3.194,3.194,0,0,1-.092.709c-.051.214-.117.425-.182.636-.01.032-.019.064-.03.094a3.976,3.976,0,0,0-.265,1.57h0v0c-.85-.534-1.2.226-1.677.653-.226.2-.489.423-.3.788.271.512.754.45,1.219.429l-.756,2.84a1.681,1.681,0,0,0-1.353.694c-.278.288-.645.551-.465,1.023.184.487.612.564,1.076.523a16.183,16.183,0,0,1-.617,2.663,6.223,6.223,0,0,0-.134,1.083c-1.747.192-2.792-.873-3.754-2.089-.615-2.044.194-3.91.73-5.807.731-2.6,1.48-5.187,2.206-7.784a4.143,4.143,0,0,0,.062-.831,4.524,4.524,0,0,0,.752-2.449,5.969,5.969,0,0,0,.72-2.193c.235-1.057,1.189-1.781,1.23-2.9,0-.055.136-.117.218-.152,1.888-.871,3.741-1.884,5.945-1.537C2456.955-644.8,2458.429-643.138,2459.913-641.489Z" transform="translate(-2424.885 661.889)" fill="#e3212e"/>
      <path id="Path_346" data-name="Path 346" d="M2390.638-720.88a12.625,12.625,0,0,1-.463,3.129,9.138,9.138,0,0,0-3.107.414,6.943,6.943,0,0,0-4.109,2.795q-3.292.031-6.581.058l-.752-.068c-.062-.485-.455-.728-.78-.995a8.961,8.961,0,0,0-6.515-2.167c-.121-.914-.3-1.826-.35-2.744-.073-1.294.064-1.41,1.33-1.394a10.222,10.222,0,0,1,5.937,2.182c.247.179.429.461.768.5a17.512,17.512,0,0,1,3.268,4.38c1.021-1.655,1.905-3.274,3.464-4.348a10.228,10.228,0,0,1,6.866-2.721C2390.331-721.86,2390.617-721.589,2390.638-720.88Z" transform="translate(-2364.347 724.048)" fill="#04905e"/>
      <path id="Path_347" data-name="Path 347" d="M2539.072-655.985a6.415,6.415,0,0,1-1.837,1.262c-1.808-1.486-3.767-2.544-6.214-2.279-1.444-1.33-2.842-2.7-4.154-4.164a7.644,7.644,0,0,0-1.649-5.36c-.231-.307-.615-.549-.617-1.006a5.654,5.654,0,0,1,1.422-1.945c.4-.41.71-.348,1.1.026a8.312,8.312,0,0,1,2.374,4.781c.053.307.119.611.178.916a12.163,12.163,0,0,1-.444,3.853c-.109.425-.171.705.425.489a10.619,10.619,0,0,1,3.95-.4,9.048,9.048,0,0,1,5.5,2.317C2539.727-656.906,2539.655-656.493,2539.072-655.985Z" transform="translate(-2491.525 681.746)" fill="#04905e"/>
      <path id="Path_348" data-name="Path 348" d="M2417.5-728.586c-1.559,1.074-2.443,2.693-3.464,4.348a17.514,17.514,0,0,0-3.269-4.38,9.828,9.828,0,0,1,2.633-4.538c.5-.472.844-.438,1.324.017a9.654,9.654,0,0,1,2.373,3.743C2417.206-729.112,2417.206-728.776,2417.5-728.586Z" transform="translate(-2399.102 733.495)" fill="#0ba66d"/>
      <path id="Path_349" data-name="Path 349" d="M2362.146-696.751c-1.305.015-2.611-.009-3.914.053a8.483,8.483,0,0,0-4.015,1.354,6.929,6.929,0,0,1-2.68-2.644c-.29-.51-.237-.844.3-1.121a5.882,5.882,0,0,1,3.015-.8,8.962,8.962,0,0,1,6.515,2.167C2361.691-697.478,2362.084-697.236,2362.146-696.751Z" transform="translate(-2350.868 706.247)" fill="#0ba66d"/>
      <path id="Path_350" data-name="Path 350" d="M2458.069-697.655a6.951,6.951,0,0,1-2.443,2.261,10.1,10.1,0,0,0-6.353-1.382c-.527.023-1.057-.019-1.583-.032a6.942,6.942,0,0,1,4.109-2.795,9.139,9.139,0,0,1,3.107-.414,6.351,6.351,0,0,1,2.618.591C2458.679-698.9,2458.741-698.7,2458.069-697.655Z" transform="translate(-2429.079 706.315)" fill="#0ba66d"/>
      <path id="Path_351" data-name="Path 351" d="M2554.367-642.531a8.21,8.21,0,0,1-.882,3.3,4.367,4.367,0,0,0-.177.517,10.618,10.618,0,0,0-3.95.4c-.6.216-.534-.064-.425-.489a12.17,12.17,0,0,0,.444-3.853,8.762,8.762,0,0,1,3.809-1.115C2554.28-643.789,2554.41-643.651,2554.367-642.531Z" transform="translate(-2511.224 660.644)" fill="#0ba66d"/>
      <path id="Path_352" data-name="Path 352" d="M2565.509-596.492a6.884,6.884,0,0,1-2.887-.053,8.977,8.977,0,0,0-3.131-4.741c-.271-.25-.5-.545-.75-.82,2.447-.265,4.406.794,6.214,2.279a17.2,17.2,0,0,1,1.207,2.2C2566.372-596.949,2566.165-596.637,2565.509-596.492Z" transform="translate(-2519.244 626.849)" fill="#0ba66d"/>
      <path id="Path_353" data-name="Path 353" d="M2511.383-656.775c-.105-.058-.209-.118-.314-.179-1.484-1.649-2.958-3.314-5.3-3.744-.079-.64-.156-1.277-.235-1.918.369-2,.714-2.142,2.486-1.076.346.209.577.683,1.1.551,0,.457.385.7.617,1.006A7.646,7.646,0,0,1,2511.383-656.775Z" transform="translate(-2476.041 677.354)" fill="#0ba66d"/>
      <path id="Path_354" data-name="Path 354" d="M2392.448-607.061c-1.019-.008-.706-.78-.768-1.338a3.134,3.134,0,0,1,.046-.746.677.677,0,0,1,1.181-.28A1.711,1.711,0,0,1,2392.448-607.061Z" transform="translate(-2383.602 632.955)" fill="#c61a27"/>
      <path id="Path_355" data-name="Path 355" d="M2391.672-661.507c.034-.363-.073-.719.158-1.026a.675.675,0,0,1,.819-.291c.494.191.548.625.529,1.09-.022.557.073,1.168-.579,1.453a.633.633,0,0,1-.743-.263C2391.6-660.841,2391.711-661.2,2391.672-661.507Z" transform="translate(-2383.596 676.153)" fill="#c61a27"/>
      <path id="Path_356" data-name="Path 356" d="M2440.716-636.507a3.44,3.44,0,0,1,.007-.654c.083-.415.361-.725.784-.634.724.155.679.784.69,1.352.01.549.027,1.123-.689,1.229a.685.685,0,0,1-.785-.639A3.463,3.463,0,0,1,2440.716-636.507Z" transform="translate(-2423.405 655.806)" fill="#c61a27"/>
      <path id="Path_357" data-name="Path 357" d="M2424.168-551.4c-.281-.259-.658-.46-.569-.943a6.921,6.921,0,0,1,.044-1.107.68.68,0,0,1,1.193-.366c.472.489.281,1.113.218,1.674A.757.757,0,0,1,2424.168-551.4Z" transform="translate(-2409.508 587.804)" fill="#c61a27"/>
      <path id="Path_358" data-name="Path 358" d="M2458.2-661.421a2.94,2.94,0,0,1,0,.559c-.078.414-.337.718-.767.65-.691-.11-.7-.693-.706-1.231-.006-.564-.036-1.19.684-1.346.422-.092.706.21.784.624A4.136,4.136,0,0,1,2458.2-661.421Z" transform="translate(-2436.408 676.101)" fill="#c61a27"/>
      <path id="Path_359" data-name="Path 359" d="M2409.246-636.522a3.412,3.412,0,0,1-.052.742.663.663,0,0,1-.757.552c-.686-.131-.691-.706-.7-1.243-.005-.566-.028-1.18.692-1.341a.657.657,0,0,1,.758.549A3.374,3.374,0,0,1,2409.246-636.522Z" transform="translate(-2396.642 655.819)" fill="#c61a27"/>
      <path id="Path_360" data-name="Path 360" d="M2424.675-661.547c0-.248-.015-.5,0-.744a.554.554,0,0,1,.617-.552c.4-.009.666.154.684.58s.006.869.01,1.3-.14.726-.629.738c-.534.014-.707-.289-.694-.767.005-.186,0-.372,0-.559Z" transform="translate(-2410.384 676.13)" fill="#c61a27"/>
      <path id="Path_361" data-name="Path 361" d="M2408.2-580.263a.934.934,0,0,1-.579-.953c0-.344.008-.689.013-1.033a.576.576,0,0,1,.632-.646c.411-.008.664.167.678.6s0,.876.01,1.315C2408.966-580.465,2408.7-580.242,2408.2-580.263Z" transform="translate(-2396.545 611.218)" fill="#c61a27"/>
      <path id="Path_362" data-name="Path 362" d="M2376.419-635.1c-.485.01-.788-.179-.757-.71a3.643,3.643,0,0,1,.185-1.744c.711-.372,1.126-.038,1.1.642C2376.924-636.294,2377.429-635.446,2376.419-635.1Z" transform="translate(-2370.585 655.72)" fill="#c61a27"/>
      <path id="Path_363" data-name="Path 363" d="M2440.637-581.491c.125-.395-.315-1.224.6-1.211.85.011.711.774.721,1.353a2.764,2.764,0,0,1-.018.559.71.71,0,0,1-.766.66c-.453-.018-.538-.348-.539-.722C2440.636-581.039,2440.637-581.226,2440.637-581.491Z" transform="translate(-2423.352 611.062)" fill="#c61a27"/>
      <path id="Path_364" data-name="Path 364" d="M2424.665-608.305c0-.187,0-.373,0-.56.013-.425.217-.763.643-.775s.65.321.671.744c.017.341,0,.684.008,1.026.011.455-.091.808-.647.816s-.694-.312-.679-.784C2424.669-607.994,2424.664-608.15,2424.665-608.305Z" transform="translate(-2410.382 632.934)" fill="#c61a27"/>
      <path id="Path_365" data-name="Path 365" d="M2457.874-609.562a4.509,4.509,0,0,1-.752,2.449,1.929,1.929,0,0,1-.41-2.148A.751.751,0,0,1,2457.874-609.562Z" transform="translate(-2436.263 632.999)" fill="#c61a27"/>
      <path id="Path_366" data-name="Path 366" d="M2462.8-537.657c-.464.041-.89-.036-1.076-.524-.18-.473.188-.736.466-1.023a1.679,1.679,0,0,1,1.352-.693,1.049,1.049,0,0,1-.2,1.612A6.2,6.2,0,0,0,2462.8-537.657Z" transform="translate(-2440.431 576.31)" fill="#c61a27"/>
      <path id="Path_367" data-name="Path 367" d="M2521.363-576.544a.705.705,0,0,1-.642-.709c-.029-.374,1.016-1.5,1.391-1.482a.771.771,0,0,1,.779.667C2522.971-577.616,2521.942-576.572,2521.363-576.544Z" transform="translate(-2488.375 607.84)" fill="#c61a27"/>
      <path id="Path_368" data-name="Path 368" d="M2541.279-559.614a.8.8,0,0,1,.7.717c.056.355-1,1.45-1.4,1.464a.7.7,0,0,1-.778-.638C2539.729-558.529,2540.768-559.6,2541.279-559.614Z" transform="translate(-2503.861 592.315)" fill="#c61a27"/>
      <path id="Path_369" data-name="Path 369" d="M2547.167-583.191c.025.458-1,1.553-1.42,1.528a.785.785,0,0,1-.747-.708c-.062-.4,1.011-1.476,1.427-1.46A.738.738,0,0,1,2547.167-583.191Z" transform="translate(-2508.085 611.979)" fill="#c61a27"/>
      <path id="Path_370" data-name="Path 370" d="M2515.9-551.915c.015.462-1.016,1.534-1.433,1.518a.718.718,0,0,1-.742-.695c-.046-.4.989-1.492,1.415-1.475A.886.886,0,0,1,2515.9-551.915Z" transform="translate(-2482.696 586.593)" fill="#c61a27"/>
      <path id="Path_371" data-name="Path 371" d="M2526.463-600.778a.68.68,0,0,1-.635-.667c-.029-.379,1.126-1.429,1.505-1.38a.671.671,0,0,1,.671.743A1.9,1.9,0,0,1,2526.463-600.778Z" transform="translate(-2492.521 627.402)" fill="#c61a27"/>
      <path id="Path_372" data-name="Path 372" d="M2484.061-615.377c-.469.293-1.05.741-1.413.053-.419-.794.359-1.242.875-1.609a.652.652,0,0,1,1.114.434C2484.715-615.986,2484.253-615.751,2484.061-615.377Z" transform="translate(-2457.365 639.002)" fill="#c61a27"/>
      <path id="Path_373" data-name="Path 373" d="M2495.313-569.55a.738.738,0,0,1-.594-.794c.019-.361,1.083-1.443,1.4-1.4a.731.731,0,0,1,.652.869A1.93,1.93,0,0,1,2495.313-569.55Z" transform="translate(-2467.262 602.162)" fill="#c61a27"/>
      <path id="Path_374" data-name="Path 374" d="M2470.064-563.843c-.464.021-.947.082-1.218-.43-.192-.363.072-.583.3-.786.474-.427.827-1.19,1.679-.652C2471.353-564.771,2470.368-564.445,2470.064-563.843Z" transform="translate(-2446.202 597.416)" fill="#c61a27"/>
      <path id="Path_375" data-name="Path 375" d="M2489.291-544.74c-.473,0-.669-.253-.646-.706.024-.485.916-1.372,1.383-1.335a.682.682,0,0,1,.67.742C2490.7-545.582,2489.763-544.732,2489.291-544.74Z" transform="translate(-2462.33 581.896)" fill="#c61a27"/>
      <path id="Path_376" data-name="Path 376" d="M2503.122-597.779c.323.06.62.176.641.614.018.379-.934,1.565-1.306,1.543a.7.7,0,0,1-.753-.662A2.644,2.644,0,0,1,2503.122-597.779Z" transform="translate(-2472.934 623.303)" fill="#c61a27"/>
      <path id="Path_377" data-name="Path 377" d="M2476.941-589.112c-.434.183-.92.416-1.234-.111-.288-.485.161-.782.453-1.091.363-.385.711-.8,1.329-.678C2477.972-590.172,2477.4-589.658,2476.941-589.112Z" transform="translate(-2451.751 617.809)" fill="#c61a27"/>
      <path id="Path_378" data-name="Path 378" d="M2508.854-621.209c.013.478-.834,1.419-1.3,1.414a.679.679,0,0,1-.742-.672c-.024-.327,1.065-1.36,1.415-1.373C2508.66-621.856,2508.848-621.619,2508.854-621.209Z" transform="translate(-2477.083 642.839)" fill="#c61a27"/>
    </g>
  </g>
</svg>
