<svg xmlns="http://www.w3.org/2000/svg" xmlns:xlink="http://www.w3.org/1999/xlink" width="50" height="50" viewBox="0 0 50 50">
  <defs>
    <clipPath id="clip-path">
      <rect id="Rectangle_107" data-name="Rectangle 107" width="50" height="50" fill="#fff" stroke="#707070" stroke-width="1"/>
    </clipPath>
  </defs>
  <g id="Mask_Group_16" data-name="Mask Group 16" clip-path="url(#clip-path)">
    <g id="Group_668" data-name="Group 668" transform="translate(0.903 0.908)">
      <path id="Path_379" data-name="Path 379" d="M2435.046-336.614a27.662,27.662,0,0,1-10.377-6.474,30.264,30.264,0,0,1-8.114-11.623,10.975,10.975,0,0,1-.726-6.082,21.155,21.155,0,0,1,.965-2.317,26.352,26.352,0,0,0-10.431,11.9,26.763,26.763,0,0,0-1.825,16.609,13.045,13.045,0,0,0,3.475,6.595,13.3,13.3,0,0,0,6.331,3.211,23.361,23.361,0,0,0,8.2.4,26.368,26.368,0,0,0,17.671-9.108,12.056,12.056,0,0,0,2.575-3.641C2440.321-335.373,2437.68-335.767,2435.046-336.614Zm-6.467,3.016a4.045,4.045,0,0,1-4.332.37.984.984,0,0,0-.965-.013,3.881,3.881,0,0,1-3.858-.038.854.854,0,0,0-.878.057,3.863,3.863,0,0,1-3.522.1c-.513-.272-.658,0-.783.419a2.535,2.535,0,0,0,1.058,2.534,2.33,2.33,0,0,0,2.883-.1c.445-.343.875-.579,1.333-.16.49.451.392.952-.1,1.371a4.172,4.172,0,0,1-6.683-1.961,1.577,1.577,0,0,1-.091-.364c-.04-.92-.48-1.3-1.425-1.5a4.114,4.114,0,0,1-2.532-6.623c.364-.507.8-.777,1.337-.4s.46.884.056,1.378a2.3,2.3,0,0,0-.3,2.707,2.68,2.68,0,0,0,2.078,1.391c.922.009,1.141-.305.858-1.2a4.211,4.211,0,0,1,.262-3.182.943.943,0,0,0,.011-.965,3.789,3.789,0,0,1-.068-3.6,1.6,1.6,0,0,0-.01-1.316,4.455,4.455,0,0,1,.518-4.289c.374-.507.829-.726,1.354-.315.483.377.388.841.04,1.32a2.319,2.319,0,0,0,.155,3.371,2.265,2.265,0,0,0,3.294.128c.433-.324.85-.464,1.261-.079.453.422.317.862-.032,1.329a2.261,2.261,0,0,0,.149,3.292,2.325,2.325,0,0,0,3.3.192c.462-.347.9-.511,1.331-.064s.24.875-.107,1.331a2.268,2.268,0,0,0,.222,3.29,2.308,2.308,0,0,0,3.231.181c.531-.405,1.039-.581,1.45.019S2429.126-333.954,2428.579-333.6Z" transform="translate(-2396.304 364.76)" fill="#67b8cb"/>
      <path id="Path_380" data-name="Path 380" d="M2494.246-352.446a29.748,29.748,0,0,0-8.32-12.23,27.4,27.4,0,0,0-10.8-6.617c-2.79-.841-5.494-.948-7.9,1.082a21.063,21.063,0,0,0-.965,2.317,10.975,10.975,0,0,0,.726,6.082,30.262,30.262,0,0,0,8.114,11.623,27.662,27.662,0,0,0,10.376,6.474c2.634.847,5.275,1.241,7.749-.528a5.379,5.379,0,0,0,1.576-3.028A10.371,10.371,0,0,0,2494.246-352.446Zm-9.589-.971c-.562.554-.954.04-1.331-.337q-1.4-1.394-2.8-2.8c-.279-.283-.564-.513-.988-.334-1.9.811-3.563.015-5-1.026a7.47,7.47,0,0,1-3.058-4.589,3.448,3.448,0,0,1,4.035-4.21,7.565,7.565,0,0,1,5.9,5.328,4.035,4.035,0,0,1,.121,1.167c0,.354.079.616-.013.786-.647,1.182.138,1.816.884,2.5.692.637,1.329,1.335,2.006,1.989C2484.888-354.48,2485.234-353.984,2484.657-353.417Z" transform="translate(-2446.735 371.861)" fill="#fe5364"/>
      <path id="Path_381" data-name="Path 381" d="M2379.347-194.624a1.2,1.2,0,0,1-1.881.4c-2.374-1.455-4.3-3.237-4.93-6.1a7.78,7.78,0,0,1-.1-2.057c.019-.411-.107-.56-.528-.534-3.986.238-6.378-2.046-8.243-5.192A1.05,1.05,0,0,1,2364-209.7a11.229,11.229,0,0,1,7.669-2.257,13.041,13.041,0,0,0,3.475,6.595,13.3,13.3,0,0,0,6.331,3.211A11.359,11.359,0,0,1,2379.347-194.624Z" transform="translate(-2363.434 242.115)" fill="#30a8cb"/>
      <path id="Path_382" data-name="Path 382" d="M2445.7-276.406c-.411-.6-.918-.424-1.45-.019a2.308,2.308,0,0,1-3.232-.181,2.268,2.268,0,0,1-.222-3.29c.347-.456.537-.886.107-1.331s-.869-.283-1.331.064a2.325,2.325,0,0,1-3.3-.192,2.261,2.261,0,0,1-.149-3.292c.349-.468.485-.907.032-1.329-.411-.385-.828-.245-1.261.079a2.265,2.265,0,0,1-3.294-.128,2.319,2.319,0,0,1-.155-3.371c.349-.479.443-.943-.04-1.32-.524-.411-.98-.192-1.354.315a4.455,4.455,0,0,0-.519,4.289,1.6,1.6,0,0,1,.01,1.316,3.789,3.789,0,0,0,.068,3.6.943.943,0,0,1-.011.965,4.209,4.209,0,0,0-.262,3.182c.283.892.064,1.207-.858,1.2a2.68,2.68,0,0,1-2.078-1.391,2.3,2.3,0,0,1,.3-2.707c.4-.494.488-1-.057-1.378s-.973-.111-1.337.4a4.114,4.114,0,0,0,2.532,6.623c.945.2,1.386.579,1.425,1.5a1.576,1.576,0,0,0,.091.364,4.172,4.172,0,0,0,6.683,1.961c.49-.419.588-.92.1-1.371-.458-.419-.888-.183-1.333.16a2.33,2.33,0,0,1-2.883.1,2.535,2.535,0,0,1-1.058-2.534c.125-.419.27-.69.782-.419a3.863,3.863,0,0,0,3.522-.1.855.855,0,0,1,.879-.057,3.88,3.88,0,0,0,3.857.038.983.983,0,0,1,.965.013,4.045,4.045,0,0,0,4.333-.37C2445.755-275.382,2446.109-275.812,2445.7-276.406Zm-12.407.564a2.6,2.6,0,0,1-2.422-3.013c.132-.422.3-.7.779-.4a.393.393,0,0,0,.172.074,2.185,2.185,0,0,1,2.319,2.26C2434.233-276.131,2434.147-275.827,2433.294-275.842Zm.066-4.711a2.585,2.585,0,0,1-2.468-3.073c.145-.419.3-.452.745-.373,1.4.247,2.423.686,2.519,2.383C2434.2-280.793,2434.251-280.578,2433.361-280.554Zm4.7,4.711a2.606,2.606,0,0,1-2.494-2.956c.128-.445.294-.781.832-.443a.393.393,0,0,0,.172.074c1.467.058,2.141.829,2.3,2.283C2438.947-276.138,2438.881-275.857,2438.057-275.842Z" transform="translate(-2412.932 306.188)" fill="#3c97d2"/>
      <path id="Path_383" data-name="Path 383" d="M2507.262-333.1c-.677-.654-1.314-1.352-2.006-1.989-.746-.688-1.531-1.322-.884-2.5.092-.17.013-.432.013-.786a4.036,4.036,0,0,0-.121-1.167,7.565,7.565,0,0,0-5.9-5.328,3.448,3.448,0,0,0-4.034,4.21,7.469,7.469,0,0,0,3.058,4.589c1.44,1.041,3.1,1.836,5,1.026.424-.179.709.051.988.334q1.392,1.406,2.8,2.8c.377.377.769.892,1.331.337S2507.738-332.644,2507.262-333.1Zm-6.32-3.335c-2.228,0-4.981-2.726-5.005-4.964a1.705,1.705,0,0,1,1.895-1.834c2.232.021,4.973,2.788,4.956,5.007A1.684,1.684,0,0,1,2500.943-336.435Z" transform="translate(-2469.585 350.024)" fill="#df4e61"/>
      <path id="Path_384" data-name="Path 384" d="M2460.775-250.872a2.583,2.583,0,0,1-2.467-3.073c.145-.418.3-.453.745-.374,1.394.248,2.421.686,2.518,2.383C2461.618-251.112,2461.665-250.9,2460.775-250.872Z" transform="translate(-2440.347 276.507)" fill="#67b8cb"/>
      <path id="Path_385" data-name="Path 385" d="M2485.7-226.126a2.6,2.6,0,0,1-2.493-2.956c.128-.445.294-.781.831-.442a.386.386,0,0,0,.171.073c1.468.058,2.142.83,2.3,2.283C2486.587-226.42,2486.52-226.14,2485.7-226.126Z" transform="translate(-2460.572 256.471)" fill="#67b8cb"/>
      <path id="Path_386" data-name="Path 386" d="M2460.692-226.127a2.6,2.6,0,0,1-2.422-3.013c.132-.422.295-.7.778-.4a.389.389,0,0,0,.17.073,2.187,2.187,0,0,1,2.32,2.262C2461.63-226.416,2461.544-226.113,2460.692-226.127Z" transform="translate(-2440.329 256.473)" fill="#67b8cb"/>
      <path id="Path_387" data-name="Path 387" d="M2505.1-335.842c2.233.021,4.973,2.789,4.956,5.007a1.684,1.684,0,0,1-1.844,1.792c-2.229,0-4.981-2.726-5.006-4.964A1.707,1.707,0,0,1,2505.1-335.842Z" transform="translate(-2476.856 342.632)" fill="#f7f9fa"/>
    </g>
  </g>
</svg>
