<svg xmlns="http://www.w3.org/2000/svg" xmlns:xlink="http://www.w3.org/1999/xlink" width="50" height="50" viewBox="0 0 50 50">
  <defs>
    <clipPath id="clip-path">
      <rect id="Rectangle_103" data-name="Rectangle 103" width="50" height="50" fill="#fff" stroke="#707070" stroke-width="1"/>
    </clipPath>
  </defs>
  <g id="Mask_Group_11" data-name="Mask Group 11" clip-path="url(#clip-path)">
    <g id="Group_665" data-name="Group 665" transform="translate(1.05 1.062)">
      <path id="Path_322" data-name="Path 322" d="M1542.22-720.847a4.678,4.678,0,0,1,.629-.307c.172-.047.342-.086.511-.116-.169.03-.339.067-.511.114A4.454,4.454,0,0,0,1542.22-720.847Z" transform="translate(-1504.121 721.343)" fill="#f7f9fa"/>
      <path id="Path_323" data-name="Path 323" d="M1371.457-654.122c-1.583-1.541-3.059-3.193-4.734-4.638-.2.475-.187,1.005-.584,1.438a8.569,8.569,0,0,1-7.1,3.079,21.733,21.733,0,0,0-12.212,3.143c-6.336,3.671-9.235,9.981-7.778,16.8,1.372,6.417,7.491,11.551,13.85,11.618a27.819,27.819,0,0,0,5.132-1.853,16.827,16.827,0,0,0,6.349-6.531,22.7,22.7,0,0,0,2.868-8.507,29.283,29.283,0,0,0,.045-4.013,8.009,8.009,0,0,1,2.578-6.257,22.131,22.131,0,0,0,1.684-1.864A1.681,1.681,0,0,0,1371.457-654.122Zm-21.567,25.653a.687.687,0,0,1-.719-.693c-.033-.432.241-.6.771-.593a.655.655,0,0,1,.659.614A.63.63,0,0,1,1349.89-628.468Zm2.184-3.016a.636.636,0,0,1-.661-.636c-.052-.44.245-.655.571-.807a.733.733,0,0,1,.7.668A.656.656,0,0,1,1352.074-631.484Zm2.518,3.017a.7.7,0,0,1-.743-.67c-.049-.421.206-.614.708-.62a.671.671,0,0,1,.724.681A.634.634,0,0,1,1354.591-628.466Z" transform="translate(-1338.681 670.534)" fill="#ad6834"/>
      <path id="Path_324" data-name="Path 324" d="M1437.587-656.558a1.122,1.122,0,0,1-1.3.691,1.877,1.877,0,0,0-1.582.631,8.2,8.2,0,0,0-2.7,6.6,21.427,21.427,0,0,1-6.1,16.508,14.105,14.105,0,0,1-11.261,4.279,27.821,27.821,0,0,0,5.133-1.853,16.824,16.824,0,0,0,6.349-6.531,22.689,22.689,0,0,0,2.867-8.507,29.264,29.264,0,0,0,.045-4.013,8.009,8.009,0,0,1,2.577-6.258,22.155,22.155,0,0,0,1.685-1.864,1.682,1.682,0,0,0-.1-2.415c-1.584-1.541-3.059-3.193-4.734-4.638a1.293,1.293,0,0,1,2.2-.824c.479.382.906.831,1.355,1.25q1.948,2.137,4.084,4.086c.4.43.811.857,1.205,1.3A1.412,1.412,0,0,1,1437.587-656.558Z" transform="translate(-1400.43 675.706)" fill="#9f5c2b"/>
      <path id="Path_325" data-name="Path 325" d="M1518.514-709.44c-.062,0-.146.022-.183-.009-1.095-.913-1.7-.071-2.4.621-1.452,1.428-2.8,2.969-4.376,4.268q-2.134-1.951-4.084-4.086c1.477-1.763,3.193-3.291,4.816-4.91a1.012,1.012,0,0,0,.176-1.55,3.72,3.72,0,0,1,.618-4.55c.036-.037.073-.075.112-.11a4.155,4.155,0,0,1,.782-.584,4.454,4.454,0,0,1,.629-.309v0c.086.221.3.3.468.429a3.907,3.907,0,0,1,1.714,2.461,1.026,1.026,0,0,0,1.016,1.033,3.775,3.775,0,0,1,2.965,3.066C1520.964-711.57,1520.2-710.14,1518.514-709.44Z" transform="translate(-1475.876 720.848)" fill="#f8edd6"/>
      <path id="Path_326" data-name="Path 326" d="M1554.233-711.865c-.979,1.765-3.5,2.563-4.743,1.61,1.689-.7,2.45-2.13,2.254-4.228a3.775,3.775,0,0,0-2.965-3.066,1.027,1.027,0,0,1-1.016-1.033,3.9,3.9,0,0,0-1.714-2.461c-.172-.131-.382-.208-.468-.429v0c.172-.047.343-.084.511-.114a4.075,4.075,0,0,1,2.591.337c.06.03.118.064.174.1a3.376,3.376,0,0,1,.661.505c.037.036.075.073.111.112s.071.077.106.118q.1.121.2.253a4.283,4.283,0,0,1,.681,1.576c.178.809.715.874,1.3,1.059A3.871,3.871,0,0,1,1554.233-711.865Z" transform="translate(-1506.852 721.662)" fill="#e8e0c3"/>
      <path id="Path_327" data-name="Path 327" d="M1395.476-503.8a.657.657,0,0,1,.659.614.63.63,0,0,1-.711.672.688.688,0,0,1-.72-.692C1394.671-503.641,1394.947-503.8,1395.476-503.8Z" transform="translate(-1384.216 544.582)" fill="#9e5b29"/>
      <path id="Path_328" data-name="Path 328" d="M1420.394-503.811a.671.671,0,0,1,.724.681.634.634,0,0,1-.687.61.7.7,0,0,1-.744-.67C1419.639-503.612,1419.893-503.805,1420.394-503.811Z" transform="translate(-1404.52 544.589)" fill="#9e5b29"/>
      <path id="Path_329" data-name="Path 329" d="M1407.246-520.753a.736.736,0,0,1,.7.668.656.656,0,0,1-.613.775.635.635,0,0,1-.659-.636C1406.623-520.386,1406.92-520.6,1407.246-520.753Z" transform="translate(-1393.944 558.359)" fill="#9e5b29"/>
    </g>
  </g>
</svg>
