<svg xmlns="http://www.w3.org/2000/svg" xmlns:xlink="http://www.w3.org/1999/xlink" width="50" height="50" viewBox="0 0 50 50">
  <defs>
    <clipPath id="clip-path">
      <rect id="Rectangle_104" data-name="Rectangle 104" width="50" height="50" fill="#fff" stroke="#707070" stroke-width="1"/>
    </clipPath>
  </defs>
  <g id="Mask_Group_12" data-name="Mask Group 12" clip-path="url(#clip-path)">
    <g id="Group_666" data-name="Group 666" transform="translate(1.111 6.468)">
      <path id="Path_330" data-name="Path 330" d="M1862.306-714.92c-2.862.175-5.73.257-8.584.552-1.18.122-2.37.094-3.558.193-2.828.241-5.674.245-8.5.454-3.323.243-6.651.393-9.976.6-3.259.205-6.516.423-9.776.606-2.372.131-4.738.369-7.117.379-.207.118-.207.321-.207.52,0,4.445-.03,8.887.018,13.332a2.444,2.444,0,0,0,2.659,2.477c.462,0,.925-.046,1.387-.1q6.018-.652,12.036-1.309c3.255-.353,6.516-.68,9.768-1.048a2.646,2.646,0,0,0,2.049-1.246c1.473-2.352,3.348-2.577,5.27-.638a2.612,2.612,0,0,0,2.234.837c3.257-.351,6.511-.722,9.766-1.074a2.483,2.483,0,0,0,2.561-2.609C1862.372-706.963,1862.32-710.942,1862.306-714.92Zm-41.569,8.463a1.835,1.835,0,0,1,1.947-1.9,1.849,1.849,0,0,1,1.838,2.011,1.767,1.767,0,0,1-1.816,1.774A1.844,1.844,0,0,1,1820.738-706.457Zm3.4,5.647a.516.516,0,0,1-.59-.61.792.792,0,0,1,.66-.745.706.706,0,0,1,.67.62C1824.9-701.082,1824.576-700.837,1824.134-700.811Zm9.633-1.973a2.69,2.69,0,0,1-2.669-2.615,2.886,2.886,0,0,1,2.731-2.756,2.874,2.874,0,0,1,2.647,2.828A2.559,2.559,0,0,1,1833.767-702.784Zm8.692-5.993a.724.724,0,0,1-.753-.584.622.622,0,0,1,.6-.745.637.637,0,0,1,.706.652C1843.033-709.082,1842.708-708.917,1842.459-708.777Zm8.68,5.949a.624.624,0,0,1-.674-.682.7.7,0,0,1,.734-.652c.4-.018.584.221.612.592C1851.751-703.157,1851.539-702.842,1851.139-702.828Zm3.9-3.739a2.165,2.165,0,0,1-2.226-2.25,2.167,2.167,0,0,1,2.342-2.133,2.16,2.16,0,0,1,2.236,2.24A2.222,2.222,0,0,1,1855.037-706.567Z" transform="translate(-1814.574 732.865)" fill="#fec269"/>
      <path id="Path_331" data-name="Path 331" d="M1863.033-788.582a17.216,17.216,0,0,0-4.646-10.324c-3.346-3.5-7.6-5.218-12.28-6.019a2.012,2.012,0,0,0-1.574.422c-2.979,2.1-5.981,4.178-8.971,6.266-1.222.855-2.448,1.708-3.644,2.6a2.363,2.363,0,0,0-1.078,2.5,2.234,2.234,0,0,1-.983,2.408,4.355,4.355,0,0,1-4.054.632,2.414,2.414,0,0,0-2.115.2c-2.673,1.9-5.443,3.655-8.028,5.678,2.38-.01,4.746-.247,7.117-.379,3.261-.183,6.518-.4,9.776-.606,3.324-.211,6.653-.361,9.976-.6,2.83-.209,5.676-.213,8.5-.454,1.188-.1,2.378-.072,3.558-.193,2.854-.3,5.722-.377,8.584-.552A4.19,4.19,0,0,0,1863.033-788.582Zm-28.326-.65a.686.686,0,0,1-.705-.678.627.627,0,0,1,.7-.652.726.726,0,0,1,.64.729C1835.316-789.409,1835.1-789.2,1834.706-789.231Zm8.594-3.988a1.788,1.788,0,0,1-1.688,1.413,5.365,5.365,0,0,1-.668,0,1.914,1.914,0,0,1-2.384-2.127,2.7,2.7,0,0,1,2.792-1.413,8.738,8.738,0,0,1,.841.289A1.479,1.479,0,0,1,1843.3-793.219Zm5.967-5.969a2.033,2.033,0,0,1-1.75,1.4,3.991,3.991,0,0,1-.821.008,1.966,1.966,0,0,1-1.816-.716,1.439,1.439,0,0,1,.167-2.286,3,3,0,0,1,3.43-.066A1.493,1.493,0,0,1,1849.268-799.189Zm6.583,6.944a2.434,2.434,0,0,1-2.051,1.63,5.884,5.884,0,0,1-.65.01c-.08,0-.161-.006-.241-.006-.2,0-.4.012-.6,0-.06,0-.118-.006-.175-.012a.308.308,0,0,0-.046-.006,1.938,1.938,0,0,1-.527-.136,1.036,1.036,0,0,1-.1-.044l-.094-.05c-.8-.464-1.543-1-1.459-2.041a2.193,2.193,0,0,1,1.758-1.911,3.632,3.632,0,0,1,3.143.313A1.971,1.971,0,0,1,1855.851-792.245Z" transform="translate(-1815.444 804.954)" fill="#fee07d"/>
      <path id="Path_332" data-name="Path 332" d="M1900.151-675.607a2.691,2.691,0,0,1-2.669-2.616,2.884,2.884,0,0,1,2.73-2.755,2.87,2.87,0,0,1,2.646,2.827A2.559,2.559,0,0,1,1900.151-675.607Z" transform="translate(-1880.957 705.689)" fill="#feaa5f"/>
      <path id="Path_333" data-name="Path 333" d="M2008.642-690.62a2.165,2.165,0,0,1-2.227-2.25,2.169,2.169,0,0,1,2.342-2.134,2.161,2.161,0,0,1,2.236,2.24A2.222,2.222,0,0,1,2008.642-690.62Z" transform="translate(-1968.178 716.919)" fill="#feaa5f"/>
      <path id="Path_334" data-name="Path 334" d="M1847.47-678.224a1.843,1.843,0,0,1-1.968-1.882,1.833,1.833,0,0,1,1.947-1.9,1.849,1.849,0,0,1,1.838,2.011A1.768,1.768,0,0,1,1847.47-678.224Z" transform="translate(-1839.338 706.513)" fill="#feaa5f"/>
      <path id="Path_335" data-name="Path 335" d="M1995.986-660.354c-.059.414-.27.728-.67.743a.626.626,0,0,1-.675-.682.7.7,0,0,1,.733-.653C1995.78-660.964,1995.96-660.724,1995.986-660.354Z" transform="translate(-1958.751 689.648)" fill="#feaa5f"/>
      <path id="Path_336" data-name="Path 336" d="M1860.233-650.933a.708.708,0,0,1,.67.62c.029.465-.3.71-.738.736a.517.517,0,0,1-.591-.61A.793.793,0,0,1,1860.233-650.933Z" transform="translate(-1850.604 681.631)" fill="#feaa5f"/>
      <path id="Path_337" data-name="Path 337" d="M1951.4-689.456a.725.725,0,0,1-.753-.584.623.623,0,0,1,.6-.745.636.636,0,0,1,.707.651C1951.976-689.762,1951.652-689.6,1951.4-689.456Z" transform="translate(-1923.517 713.544)" fill="#feaa5f"/>
      <path id="Path_338" data-name="Path 338" d="M1990.476-750.718a2.794,2.794,0,0,1-1.54-.248c-.8-.464-1.543-1-1.458-2.041a2.194,2.194,0,0,1,1.757-1.911,3.638,3.638,0,0,1,3.143.314,1.971,1.971,0,0,1,1.041,2.25,2.436,2.436,0,0,1-2.051,1.631C1991.073-750.7,1990.773-750.719,1990.476-750.718Z" transform="translate(-1953.011 765.064)" fill="#fec369"/>
      <path id="Path_339" data-name="Path 339" d="M1962.13-783.337a1.965,1.965,0,0,1-1.816-.715,1.439,1.439,0,0,1,.168-2.287,3,3,0,0,1,3.43-.065,1.492,1.492,0,0,1,.789,1.661,2.027,2.027,0,0,1-1.749,1.4A3.917,3.917,0,0,1,1962.13-783.337Z" transform="translate(-1930.877 790.508)" fill="#fec369"/>
      <path id="Path_340" data-name="Path 340" d="M1932.739-753.353a1.913,1.913,0,0,1-2.384-2.125,2.7,2.7,0,0,1,2.793-1.414,8.565,8.565,0,0,1,.839.29,1.476,1.476,0,0,1,1.106,1.832,1.785,1.785,0,0,1-1.687,1.413A5.257,5.257,0,0,1,1932.739-753.353Z" transform="translate(-1907.238 766.504)" fill="#fec369"/>
      <path id="Path_341" data-name="Path 341" d="M1909.02-732.023c-.027.423-.247.632-.638.6a.687.687,0,0,1-.706-.678.627.627,0,0,1,.705-.651A.724.724,0,0,1,1909.02-732.023Z" transform="translate(-1889.12 747.146)" fill="#fec369"/>
    </g>
  </g>
</svg>
