<svg xmlns="http://www.w3.org/2000/svg" width="18.225" height="18.736" viewBox="0 0 18.225 18.736">
  <path id="Icon_material-settings" data-name="Icon material-settings" d="M19.481,13.286a6.46,6.46,0,0,0,0-1.836L21.458,9.9a.473.473,0,0,0,.112-.6L19.7,6.063a.471.471,0,0,0-.571-.206l-2.333.937a6.844,6.844,0,0,0-1.583-.918l-.356-2.483A.457.457,0,0,0,14.394,3H10.647a.457.457,0,0,0-.459.393L9.832,5.876a7.2,7.2,0,0,0-1.583.918L5.916,5.857a.457.457,0,0,0-.571.206L3.471,9.3a.462.462,0,0,0,.112.6L5.56,11.45a7.429,7.429,0,0,0-.066.918,7.429,7.429,0,0,0,.066.918L3.583,14.832a.473.473,0,0,0-.112.6l1.874,3.241a.471.471,0,0,0,.571.206l2.333-.937a6.844,6.844,0,0,0,1.583.918l.356,2.483a.457.457,0,0,0,.459.393h3.747a.457.457,0,0,0,.459-.393l.356-2.483a7.2,7.2,0,0,0,1.583-.918l2.333.937a.457.457,0,0,0,.571-.206l1.874-3.241a.473.473,0,0,0-.112-.6l-1.977-1.546Zm-6.961,2.361A3.279,3.279,0,1,1,15.8,12.368,3.282,3.282,0,0,1,12.521,15.647Z" transform="translate(-3.406 -3)" fill="#fff"/>
</svg>
