<svg xmlns="http://www.w3.org/2000/svg" width="17.5" height="15.333" viewBox="0 0 17.5 15.333">
  <path id="Path_564" data-name="Path 564" d="M-1388.129,101.668a4.986,4.986,0,0,0-.8-2.671,4.935,4.935,0,0,0-2.007-1.756,5.029,5.029,0,0,0-4.777.273,6.82,6.82,0,0,0-1.163.987l-.268-.268a5,5,0,0,0-1.224-.908,5.048,5.048,0,0,0-3.4-.445,4.974,4.974,0,0,0-2.86,1.843,4.94,4.94,0,0,0-.993,2.794,4.968,4.968,0,0,0,.766,2.851,8.588,8.588,0,0,0,1.237,1.4l.473.473,1.086,1.086,1.392,1.392,1.411,1.411,1.125,1.125c.179.179.356.358.535.535a1.018,1.018,0,0,0,1.232.166,1.465,1.465,0,0,0,.282-.238l.729-.729,1.234-1.233,1.431-1.431,1.342-1.342.946-.945.425-.425c.235-.235.477-.462.689-.716a5.055,5.055,0,0,0,.888-1.56,4.948,4.948,0,0,0,.273-1.63A.323.323,0,0,0-1388.129,101.668Zm-4.38-4.134c-.054,0-.039,0-.016,0Zm-7.584,0-.026,0,.023,0Zm-4.478,5.805a.285.285,0,0,1,.012.028l-.008-.019Z" transform="translate(1405.627 -96.762)" fill="#fff"/>
</svg>
