<svg xmlns="http://www.w3.org/2000/svg" width="18.437" height="18.437" viewBox="0 0 18.437 18.437">
  <path id="Path_638" data-name="Path 638" d="M19.448,10.23a9.218,9.218,0,1,0,9.218,9.218,9.218,9.218,0,0,0-9.218-9.218Zm0,14.74a1.025,1.025,0,1,1,1.025-1.025,1.025,1.025,0,0,1-1.025,1.025Zm2.364-6.321a4.365,4.365,0,0,1-.6.612c-.107.1-.206.185-.29.274a2.913,2.913,0,0,0-.633,2.174H18.637A4.468,4.468,0,0,1,19.72,18.4c.132-.141.271-.264.392-.373a3,3,0,0,0,.382-.38,1.247,1.247,0,0,0,.211-.978,1.319,1.319,0,0,0-.561-.883,1.391,1.391,0,0,0-1.655.181,1.217,1.217,0,0,0-.311,1.055l-1.641.232a2.849,2.849,0,0,1,.825-2.506,3.034,3.034,0,0,1,3.665-.364,2.955,2.955,0,0,1,1.3,1.989,2.9,2.9,0,0,1-.517,2.279Z" transform="translate(-10.23 -10.23)" fill="#fff"/>
</svg>
