<svg xmlns="http://www.w3.org/2000/svg" width="18.671" height="18.317" viewBox="0 0 18.671 18.317">
  <path id="Path_566" data-name="Path 566" d="M2.5,21.717H21.171V20.538H19.991V10.573L13.467,8.785V20.518h-.884V3.4l-8.9,1.769V20.538H2.5Zm14.819-9.61H18.5v1.533H17.319Zm0,2.732H18.5v1.533H17.319Zm0,2.732H18.5V19.1H17.319Zm-2.378-5.464H16.12v1.533H14.941Zm0,2.732H16.12v1.533H14.941Zm0,2.732H16.12V19.1H14.941ZM9.909,6.662h1.179V8.2H9.909Zm0,2.732h1.179v1.533H9.909Zm0,2.712h1.179v1.533H9.909Zm0,2.732h1.179v1.533H9.909ZM7.531,6.662H8.71V8.2H7.531Zm0,2.732H8.71v1.533H7.531Zm0,2.712H8.71v1.533H7.531Zm0,2.732H8.71v1.533H7.531ZM5.153,6.662H6.332V8.2H5.153Zm0,2.732H6.332v1.533H5.153Zm0,2.712H6.332v1.533H5.153Zm0,2.732H6.332v1.533H5.153ZM7,17.57h2.26v2.968H7Z" transform="translate(-2.5 -3.4)" fill="#fff"/>
</svg>
